# xmcd
#
# Track frame offsets: 
#        150
#        6835
#        32255
#        45388
#        60119
#        65274
#        70781
#        94069
#        108695
#        124058
#        128028
#        132454
#        139948
#        162722
#        176512
#        192987
#        200426
#        206699
#        228804
#        244419
#        258175
#        264019
#        269036
#        292533
#        304134
#        318429
#        323263
#
# Disc length: 4400 seconds
#
# Revision: 0
# Processed by: cddbd v1.5.2PL0 Copyright (c) Steve Scherf et al.
# Submitted via: ExactAudioCopy v1.0b1
#
DISCID=79112e1b
DTITLE=Various Artist - The Complete Mothers Best Recordings CD6
DYEAR=2010
DGENRE=Country
TTITLE0=Introduction
TTITLE1=Why Should We Try Any More
TTITLE2=Audrey Williams and the Drifting Cowboys: Low and Lonely
TTITLE3=Jesus Died for Me
TTITLE4=Closing
TTITLE5=Introduction
TTITLE6=Long Gone Lonesome Blues
TTITLE7=Audrey Williams and the Drifting Cowboys: (Last Night) I Heard Y
TTITLE7=ou Crying in Your Sleep
TTITLE8=Oh Those Tombs (Lonely Tombs)
TTITLE9=Jerry Rivers and the Drifting Cowboys: Turkey in the Straw
TTITLE10=Closing
TTITLE11=Introduction
TTITLE12=Dear John
TTITLE13=Audrey Williams and the Drifting Cowboys: If You Want Some Lovi
TTITLE13=n’
TTITLE14=Hank and Audrey and the Drifting Cowboys: I Heard My Mother Pra
TTITLE14=ying for Me
TTITLE15=Closing
TTITLE16=Introduction
TTITLE17=Moanin’ the Blues
TTITLE18=Audrey Williams and the Drifting Cowboys: Honky Tonkin’
TTITLE19=I’ll Have a New Life
TTITLE20=Closing
TTITLE21=Introduction
TTITLE22=Dear John
TTITLE23=Don Helms and the Drifting Cowboys: Roadside Rag
TTITLE24=I’ll Fly Away
TTITLE25=Jerry Rivers and the Drifting Cowboys: Bonaparte’s Retreat
TTITLE26=Closing
EXTD=
EXTT0=
EXTT1=
EXTT2=
EXTT3=
EXTT4=
EXTT5=
EXTT6=
EXTT7=
EXTT8=
EXTT9=
EXTT10=
EXTT11=
EXTT12=
EXTT13=
EXTT14=
EXTT15=
EXTT16=
EXTT17=
EXTT18=
EXTT19=
EXTT20=
EXTT21=
EXTT22=
EXTT23=
EXTT24=
EXTT25=
EXTT26=
PLAYORDER=
